<?xml version="1.0" encoding="UTF-8"?>
<svg width="66px" height="70px" viewBox="0 0 66 70" version="1.1" xmlns="http://www.w3.org/2000/svg" xmlns:xlink="http://www.w3.org/1999/xlink">
    <defs></defs>
    <g id="pages" stroke="none" stroke-width="1" fill-rule="evenodd">
        <g transform="translate(-116.000000, -33.000000)">
            <g transform="translate(-109.000000, -10.000000)">
                <g transform="translate(225.000000, 43.000000)">
                    <path d="M29.2542752,44.5931818 C31.6275631,44.5931818 32.9431994,42.1437603 32.9431994,39.6594835 C32.9431994,37.1789669 31.6275631,34.7978099 29.2542752,34.7978099 C26.872465,34.7978099 25.554373,37.1789669 25.554373,39.6594835 C25.554373,42.1437603 26.872465,44.5931818 29.2542752,44.5931818" id="Fill-1"></path>
                    <path d="M29.2542752,30.415 C34.4341962,30.415 37.8839138,34.5302479 37.8839138,39.6892769 C37.8839138,44.8546694 34.4341962,48.965 29.2542752,48.965 C24.0606317,48.965 20.607014,44.8546694 20.607014,39.6892769 C20.607014,34.5302479 24.0606317,30.415 29.2542752,30.415 L29.2542752,30.415 Z M43.3391534,30.425124 C45.0830794,30.425124 46.4965074,34.5775413 46.4965074,39.6992562 C46.4965074,44.821405 45.0830794,48.9710744 43.3391534,48.9710744 C41.596383,48.9710744 40.1768883,44.821405 40.1768883,39.6992562 C40.1768883,34.5775413 41.596383,30.425124 43.3391534,30.425124 L43.3391534,30.425124 Z M43.2992857,21.9124587 C45.0161998,21.9124587 46.4000158,23.3040702 46.4000158,25.0153099 C46.4000158,26.7317562 45.0161998,28.1245248 43.2992857,28.1245248 C41.5890162,28.1245248 40.2026001,26.7317562 40.2026001,25.0153099 C40.2026001,23.3040702 41.5890162,21.9124587 43.2992857,21.9124587 L43.2992857,21.9124587 Z M32.3547165,69.3788223 C41.2304951,71.0978719 54.3040898,69.8809711 54.3040898,54.5071488 C54.3040898,29.8133471 72.7318103,26.1089876 62.4684599,11.192624 C50.0424276,-6.86708678 8.0996572,-2.85264463 1.36185986,23.6040289 C-4.60732734,47.0434711 11.6192878,65.3623554 32.3547165,69.3788223 L32.3547165,69.3788223 Z" id="Fill-2"></path>
                </g>
            </g>
        </g>
    </g>
</svg>